<svg width="133" height="133" viewBox="0 0 133 133" fill="none" xmlns="http://www.w3.org/2000/svg">
<g clip-path="url(#clip0_1379_34)">
<path d="M40.4277 5.04003L42.8606 4.28706L43.2741 4.70605L43.3593 4.78499L47.9574 9.37567L49.0278 3.60696L49.0947 3.2487L49.2711 2.30141L51.2356 1.69418L51.5154 2.59288L51.1079 2.68397C50.9923 2.72648 50.9072 2.79934 50.8524 2.90257C50.7977 3.0058 50.7916 3.12118 50.822 3.23048L53.0481 10.3958C53.0846 10.5112 53.1515 10.5962 53.2609 10.6509C53.3704 10.7055 53.4799 10.7177 53.5954 10.6873L53.9847 10.5355L54.2645 11.4281L50.8281 12.4969L50.5483 11.6042L50.9558 11.5071C51.0714 11.4646 51.1565 11.3917 51.2113 11.2885C51.266 11.1852 51.2721 11.0699 51.2417 10.9606L49.5691 5.58654L48.6811 10.3655L48.6142 10.7055V10.7419L48.3223 12.3025L43.56 7.56005L45.0562 12.3633C45.1474 12.6122 45.2995 12.8005 45.5306 12.9158C45.7617 13.0312 45.9989 13.0555 46.2483 12.9766L46.6315 12.8612L46.8991 13.7235L43.4566 14.7922L43.189 13.9299L43.5783 13.8085C43.8215 13.7356 44.004 13.5838 44.1256 13.3531C44.2473 13.1284 44.2716 12.8855 44.2047 12.6304L42.2706 6.41845C42.1794 6.16949 42.0273 5.98124 41.7962 5.86587C41.5651 5.75049 41.334 5.72621 41.0846 5.80515L40.6953 5.92659L40.4277 5.06432V5.04003Z" fill="#343434"/>
<path d="M58.5524 9.92826L58.6254 10.827L55.0735 11.1488L55.0005 10.2501L55.3958 10.2137C55.6878 10.1894 55.9736 10.0558 56.2473 9.81895C56.521 9.58213 56.7156 9.30281 56.8251 8.98705L56.8373 8.95061L58.9113 2.26498C58.9538 2.13139 58.966 2.00994 58.9599 1.90064C58.9478 1.78527 58.9113 1.70025 58.8504 1.63346C58.6802 1.54237 58.5281 1.50594 58.4004 1.51808L57.9929 1.59095L57.9016 0.655813L60.4744 0.425064L64.8291 8.77451C65.042 9.10242 65.334 9.27852 65.6928 9.29673L66.1003 9.22387L66.1915 10.159L62.6396 10.4808L62.5605 9.58213L62.9559 9.5457C63.0288 9.53963 63.0653 9.52748 63.0714 9.50927C63.0775 9.49712 63.0836 9.47283 63.0775 9.4364C63.0775 9.38782 63.0532 9.3271 63.0167 9.24816H63.0106L61.6847 6.69778C61.4901 6.69171 61.2894 6.69778 61.0947 6.716C60.3223 6.78279 59.635 7.03176 59.039 7.44467C58.4369 7.86367 58.0111 8.39803 57.7496 9.0417L57.6949 9.22387C57.6523 9.3696 57.634 9.49712 57.6462 9.60642C57.6584 9.75823 57.7192 9.86146 57.8226 9.92826H57.8287C57.9138 9.97076 58.0233 9.98898 58.151 9.97684L58.5585 9.9404L58.5524 9.92826ZM60.9123 5.80515L61.2164 5.78086L59.6776 2.81756L58.4551 6.75243C58.8626 6.44881 59.3127 6.21806 59.8175 6.05411C59.854 6.04197 59.8966 6.02982 59.9331 6.01768C60.2554 5.91445 60.5778 5.84765 60.9123 5.81729V5.80515Z" fill="#343434"/>
<path d="M74.463 9.21172L74.5177 9.27244C74.7063 9.50926 74.9252 9.70358 75.1685 9.86146C75.4118 10.0193 75.6186 10.1104 75.7889 10.1408L76.2086 10.1529L76.1052 11.082L72.6384 10.6994L72.7235 9.77037C72.7661 9.77037 72.7965 9.75216 72.8087 9.70358C72.8087 9.69143 72.8087 9.67322 72.7904 9.66107L72.7722 9.63678L70.7712 7.06819C70.7712 7.06819 70.7347 7.03783 70.7164 7.01961L70.7043 7.00139C70.5766 6.87995 70.4549 6.75243 70.3394 6.61276L70.2968 6.55811L70.0231 9.05991C70.0109 9.17529 70.0413 9.28459 70.1143 9.38175C70.1873 9.4789 70.2846 9.53355 70.4063 9.55177L70.8259 9.56392L70.7225 10.493L67.1523 10.0983L67.2557 9.16921L67.6632 9.24815C67.7849 9.25423 67.8944 9.22387 67.9856 9.14493C68.0768 9.06598 68.1316 8.96883 68.1437 8.85345L68.9648 1.42092C68.977 1.30555 68.9466 1.19625 68.8736 1.10516C68.8006 1.01408 68.7033 0.953355 68.5816 0.935138L68.1681 0.922993L68.2714 -0.006073L73.7757 0.60116C73.8122 0.60116 73.8487 0.613304 73.8791 0.619377H73.8913L74.1224 0.667955L74.463 0.746896V0.771185C74.463 0.771185 74.5238 0.789402 74.5603 0.801547C75.1989 1.03837 75.7342 1.427 76.1599 1.95529C76.4762 2.35606 76.7012 2.79327 76.835 3.26691C76.9688 3.74055 77.0053 4.21419 76.9506 4.68176C76.8958 5.15541 76.756 5.61083 76.5248 6.04804C76.2937 6.47917 75.9835 6.86173 75.5821 7.18356C75.1077 7.56612 74.5664 7.81509 73.9704 7.93046L73.7696 7.96689C73.6845 7.97904 73.5933 7.99118 73.5081 7.99725L74.4508 9.21172H74.463ZM70.8563 1.62738L70.4975 4.87608C70.5948 5.31329 70.7833 5.70192 71.0631 6.05411C71.0814 6.08447 71.1118 6.11483 71.1361 6.15127C71.5862 6.66134 72.1518 6.97103 72.8269 7.08033L72.9546 7.09248C73.7027 7.17749 74.3961 6.9771 75.0286 6.49132C75.278 6.28486 75.4301 5.98731 75.4726 5.60476C75.4909 5.43473 75.4848 5.25256 75.4605 5.05218C75.3632 4.30528 75.0347 3.58267 74.4752 2.87221C73.9339 2.20425 73.3317 1.74276 72.6566 1.47557C72.6019 1.44521 72.5471 1.427 72.4863 1.41485C72.3647 1.37235 72.237 1.34198 72.1153 1.32377L71.349 1.23875C71.2273 1.22661 71.1179 1.25697 71.0205 1.32984C70.9232 1.40271 70.8685 1.50594 70.8563 1.62738Z" fill="#343434"/>
<path d="M82.1022 12.6487C80.7763 12.2115 79.7849 11.3856 79.1098 10.159C78.7875 9.55177 78.5989 8.92025 78.532 8.25837C78.4651 7.59648 78.532 6.94067 78.7267 6.29701C79.1524 4.95502 79.9796 3.94094 81.2081 3.25477C82.4975 2.59896 83.7991 2.47144 85.1128 2.86007C85.8853 3.09082 86.5665 3.47945 87.1443 4.02595C87.1503 4.02595 87.1564 4.03203 87.1625 4.0381C87.1747 4.0381 87.1868 4.0381 87.2051 4.02595C87.2477 3.97738 87.2781 3.9288 87.2963 3.86807L87.3815 3.46123L88.2694 3.72841L87.2476 7.13499L86.3597 6.8678L86.5117 6.48525C86.5421 6.36987 86.53 6.26057 86.4752 6.16341L86.4631 6.1452C86.3475 5.93267 86.2198 5.73228 86.0677 5.54404C85.4048 4.68784 84.6445 4.12918 83.7869 3.87415C83.0084 3.6434 82.2908 3.69805 81.6339 4.0381C80.977 4.40851 80.533 4.97931 80.308 5.74442C80.2654 5.87802 80.235 6.02375 80.2107 6.17556C80.0404 7.22 80.235 8.26444 80.7824 9.30888C81.1047 9.89182 81.5001 10.3898 81.9684 10.7966C82.4367 11.2034 82.9537 11.4888 83.5011 11.6528C83.8843 11.7682 84.2553 11.8107 84.6141 11.7925L85.5325 8.72594L82.4975 7.82116L82.753 6.97103L87.5822 8.41018L85.9643 13.8085L85.0763 13.5413L85.2284 13.1587C85.2588 13.013 85.2406 12.8855 85.1554 12.7762C85.1311 12.7519 85.1068 12.7337 85.0703 12.7215C85.0398 12.7094 85.0034 12.7094 84.9669 12.7215H84.9608C84.012 12.9644 83.0875 12.9523 82.1752 12.6851C82.1509 12.679 82.1265 12.6669 82.1022 12.6547V12.6487Z" fill="#343434"/>
<path d="M90.556 14.859L90.1241 15.6545L86.9736 13.9906L87.4055 13.1952L87.7582 13.3834C88.0197 13.5231 88.3299 13.5656 88.6888 13.517C89.0476 13.4684 89.3578 13.3409 89.6254 13.1284L89.6558 13.1041L95.0446 8.6227C95.154 8.53162 95.227 8.44053 95.2818 8.34338C95.3365 8.24015 95.3547 8.14906 95.3365 8.05798C95.2453 7.88795 95.1419 7.77865 95.0263 7.71793L94.6431 7.55397L95.075 6.72206L97.3558 7.92439L96.4495 17.2879C96.4495 17.6826 96.5955 17.9862 96.8874 18.1927L97.2706 18.3566L96.8388 19.1886L93.6882 17.5247L94.114 16.7232L94.4668 16.9114C94.5276 16.9479 94.5702 16.9539 94.5884 16.9418C94.6006 16.9357 94.6188 16.9175 94.631 16.8871C94.6553 16.8446 94.6735 16.7839 94.6857 16.6989V16.6868L94.9655 13.8328C94.8013 13.7235 94.6371 13.6202 94.4607 13.5231C93.7795 13.1587 93.0679 12.9948 92.338 13.0191C91.6082 13.0434 90.9574 13.2559 90.3857 13.6567L90.2397 13.7781C90.1241 13.8753 90.039 13.9724 89.9904 14.0696C89.9174 14.2032 89.9113 14.3246 89.966 14.4339H89.9721C90.0208 14.5189 90.0998 14.5918 90.2154 14.6525L90.5742 14.8408L90.556 14.859ZM94.783 12.6912L95.0567 12.8369L95.3852 9.51534L92.2164 12.1507C92.7212 12.1204 93.2321 12.1689 93.743 12.3025C93.7795 12.3147 93.8221 12.3208 93.8646 12.3329C94.187 12.424 94.4972 12.5454 94.7952 12.6972L94.783 12.6912Z" fill="#343434"/>
<path d="M104.271 22.9291L104.284 23.0141C104.314 23.3177 104.387 23.5971 104.509 23.8642C104.63 24.1314 104.752 24.3197 104.874 24.435L105.22 24.6719L104.624 25.3945L101.93 23.1841L102.514 22.4555C102.544 22.4798 102.587 22.4798 102.623 22.4433C102.629 22.4312 102.635 22.419 102.635 22.3947V22.3644L102.362 19.1218C102.362 19.0975 102.349 19.0732 102.343 19.055V19.0367C102.295 18.8667 102.27 18.6906 102.252 18.5085V18.4356L100.64 20.3787C100.567 20.4698 100.531 20.5791 100.543 20.7006C100.555 20.822 100.604 20.9252 100.689 21.0042L101.036 21.241L100.446 21.9636L97.6724 19.6865L98.2623 18.9639L98.5604 19.2554C98.6577 19.3282 98.7671 19.3586 98.8888 19.3464C99.0104 19.3343 99.1077 19.2796 99.1807 19.1886L103.937 13.4138C104.01 13.3227 104.046 13.2195 104.034 13.098C104.022 12.9766 103.973 12.8794 103.882 12.7944L103.542 12.5576L104.138 11.835L108.413 15.3448C108.413 15.3448 108.468 15.3934 108.492 15.4176H108.505L108.675 15.5937L108.918 15.8488L108.906 15.867C108.906 15.867 108.949 15.9156 108.967 15.9459C109.374 16.4924 109.605 17.1057 109.672 17.7859C109.721 18.2959 109.672 18.7878 109.52 19.2493C109.368 19.7169 109.143 20.1298 108.839 20.5002C108.535 20.8706 108.17 21.1742 107.738 21.411C107.306 21.6478 106.838 21.7936 106.327 21.8482C105.719 21.909 105.135 21.8239 104.569 21.5932L104.381 21.5082C104.302 21.4718 104.223 21.4353 104.15 21.3867L104.271 22.917V22.9291ZM105.403 14.61L103.323 17.13C103.171 17.549 103.11 17.9802 103.152 18.4234C103.152 18.4599 103.152 18.5024 103.164 18.5449C103.262 19.2128 103.566 19.7836 104.071 20.2451L104.168 20.3241C104.752 20.8038 105.439 21.0103 106.236 20.9495C106.558 20.9131 106.844 20.7491 107.094 20.4455C107.203 20.3119 107.3 20.1601 107.385 19.978C107.714 19.3039 107.836 18.5145 107.75 17.6158C107.665 16.7657 107.41 16.0431 106.99 15.4541C106.96 15.3994 106.923 15.3508 106.881 15.3083C106.802 15.2051 106.71 15.114 106.619 15.029L106.023 14.5432C105.926 14.4643 105.816 14.4279 105.695 14.44C105.573 14.4521 105.47 14.5007 105.391 14.5979L105.403 14.61Z" fill="#343434"/>
<path d="M108.778 28.5096L108.091 29.1411L105.652 26.5057L106.339 25.8742L106.595 26.2021C106.68 26.2871 106.783 26.3357 106.905 26.3357C107.026 26.3357 107.13 26.2992 107.215 26.2203L112.731 21.1256C112.902 20.9252 112.914 20.7249 112.756 20.5123L112.452 20.233L113.139 19.6015L115.578 22.2369L114.891 22.8684L114.635 22.5405C114.55 22.4555 114.447 22.4069 114.325 22.4069C114.203 22.4069 114.1 22.4433 114.015 22.5223L108.51 27.6048C108.419 27.6898 108.371 27.787 108.364 27.9084C108.358 28.0299 108.395 28.1331 108.474 28.2303L108.778 28.5096Z" fill="#343434"/>
<path d="M117.275 23.9007L122.396 31.0721L120.559 32.3776L120.036 31.6429L120.358 31.4121C120.571 31.2603 120.699 31.06 120.741 30.8049C120.784 30.5499 120.729 30.3131 120.577 30.0884L119.896 29.1411C119.823 29.0439 119.726 28.9832 119.604 28.965C119.482 28.9468 119.379 28.965 119.282 29.0379L113.157 33.3978C112.95 33.5739 112.914 33.7804 113.041 34.0111L113.315 34.3329L112.549 34.8794L110.457 31.9465L111.223 31.4L111.436 31.7643C111.509 31.8615 111.606 31.9222 111.728 31.9404C111.843 31.9587 111.953 31.9344 112.05 31.8615L118.193 27.4894C118.388 27.3133 118.418 27.1069 118.284 26.8822L117.603 25.9349C117.445 25.7163 117.232 25.5888 116.983 25.5463C116.727 25.5038 116.496 25.5584 116.283 25.7102L115.961 25.941L115.438 25.2062L117.275 23.9007Z" fill="#343434"/>
<path d="M115.876 38.4439L115.067 38.8447L113.461 35.6689L114.27 35.2681L114.453 35.6263C114.587 35.8875 114.812 36.1061 115.134 36.27C115.456 36.44 115.785 36.5129 116.125 36.4947H116.162L123.156 35.9482C123.296 35.936 123.412 35.9057 123.509 35.8571C123.612 35.8085 123.679 35.7356 123.716 35.6567C123.734 35.4685 123.716 35.3106 123.661 35.2013L123.442 34.8491L124.281 34.418L125.443 36.7194L119.276 43.8361C119.051 44.158 118.996 44.4859 119.106 44.832L119.325 45.1842L118.485 45.6153L116.88 42.4395L117.688 42.0327L117.871 42.3909C117.901 42.4516 117.932 42.4881 117.95 42.4881C117.968 42.4881 117.993 42.4881 118.023 42.4699C118.066 42.4456 118.114 42.4091 118.175 42.3423V42.3302L120.06 40.1624C119.994 39.9802 119.915 39.798 119.823 39.6219C119.477 38.9297 118.996 38.3832 118.382 37.9824C117.768 37.5816 117.117 37.3752 116.417 37.3752L116.229 37.3934C116.077 37.4055 115.949 37.4359 115.852 37.4845C115.718 37.5513 115.639 37.6484 115.621 37.7699C115.608 37.8731 115.633 37.9763 115.694 38.0917L115.876 38.4561V38.4439ZM120.584 39.1179L120.723 39.3912L122.913 36.8712L118.801 37.1869C119.233 37.4541 119.616 37.7881 119.957 38.1889C119.981 38.2192 120.012 38.2496 120.036 38.286C120.249 38.5471 120.431 38.8265 120.584 39.1179Z" fill="#343434"/>
<path d="M129.919 47.5767L131.762 56.1933L129.56 56.6609L129.372 55.7743L129.761 55.6893C130.017 55.6347 130.217 55.5011 130.357 55.2885C130.497 55.076 130.546 54.8331 130.491 54.5659L130.248 53.4243C130.217 53.3029 130.15 53.2118 130.047 53.145C129.944 53.0782 129.834 53.06 129.719 53.0843L122.365 54.6509C122.104 54.7299 121.988 54.906 122.019 55.1671L122.14 55.5679L121.222 55.7622L120.468 52.2402L121.386 52.0459L121.441 52.4649C121.471 52.5864 121.538 52.6774 121.636 52.7382C121.733 52.7989 121.842 52.8232 121.964 52.7989L129.342 51.2262C129.591 51.1411 129.7 50.965 129.67 50.7039L129.427 49.5623C129.366 49.3012 129.226 49.1008 129.013 48.9612C128.794 48.8215 128.563 48.779 128.308 48.8337L127.918 48.9187L127.73 48.0321L129.931 47.5645L129.919 47.5767Z" fill="#343434"/>
<path d="M122.937 59.1931L122.925 59.606C122.925 59.7274 122.973 59.8306 123.065 59.9096C123.156 59.9885 123.259 60.025 123.381 60.025L130.886 59.776C131.148 59.7396 131.288 59.5877 131.306 59.3266L131.257 58.9137L132.188 58.8834L132.309 62.466L131.379 62.4964L131.403 62.0835C131.397 61.962 131.348 61.8588 131.257 61.7799C131.166 61.7009 131.063 61.6645 130.941 61.6645L128.344 61.7495L128.393 63.2129C128.393 63.2919 128.405 63.3769 128.417 63.4558C128.435 63.6076 128.472 63.7534 128.52 63.8991C128.569 64.0388 128.63 64.1784 128.697 64.3059C128.77 64.4335 128.849 64.5549 128.94 64.6764C129.037 64.7917 129.141 64.895 129.25 64.9921C129.36 65.0893 129.475 65.1743 129.609 65.2532C129.737 65.3322 129.871 65.3929 130.01 65.4475C130.15 65.5022 130.296 65.5386 130.442 65.5629C130.515 65.5811 130.582 65.5872 130.643 65.5872H130.679C130.752 65.5811 130.838 65.5568 130.917 65.5204C131.032 65.4718 131.142 65.405 131.233 65.3079C131.318 65.2168 131.385 65.1136 131.434 64.9921C131.482 64.8707 131.507 64.7432 131.501 64.6035L131.488 64.2027L132.389 64.1724L132.51 67.7672L131.61 67.7975L131.598 67.3968C131.598 67.3117 131.58 67.2267 131.555 67.1478C131.519 67.0203 131.458 66.9049 131.373 66.8077C131.282 66.7106 131.184 66.6316 131.063 66.5709C131.002 66.5466 130.935 66.5223 130.874 66.5041C130.825 66.492 130.771 66.4859 130.704 66.4798C130.661 66.4798 130.619 66.4798 130.582 66.4677C130.564 66.4677 130.509 66.4677 130.418 66.4495H130.412C129.791 66.3645 129.238 66.1276 128.745 65.7269C128.557 65.569 128.38 65.399 128.228 65.2107C128.131 65.4779 128.003 65.7208 127.833 65.9576C127.535 66.3705 127.164 66.6924 126.732 66.9231C126.3 67.1539 125.832 67.2753 125.333 67.2935L123.636 67.3482C123.515 67.3482 123.417 67.3968 123.332 67.4878C123.247 67.5789 123.205 67.6822 123.211 67.7975L123.253 68.2105L122.317 68.2408L122.195 64.6581L123.132 64.6278L123.119 65.0407C123.119 65.1621 123.168 65.2654 123.259 65.3443C123.351 65.4233 123.454 65.4597 123.576 65.4597L125.266 65.405C125.862 65.3868 126.392 65.2289 126.854 64.9375C127.267 64.6703 127.492 64.3606 127.523 64.0023C127.523 63.9841 127.523 63.9598 127.523 63.9295L127.45 61.7677L123.454 61.9013C123.332 61.9013 123.235 61.9499 123.15 62.041C123.065 62.1321 123.022 62.2353 123.028 62.3507L123.071 62.7636L122.14 62.7939L122.019 59.2113L122.949 59.1809L122.937 59.1931Z" fill="#343434"/>
<path d="M122.755 72.9165L121.861 72.7647L122.432 69.2549L123.327 69.4067L123.26 69.8014C123.211 70.0929 123.272 70.3965 123.43 70.7244C123.588 71.0523 123.813 71.3013 124.099 71.4895L124.129 71.5077L130.108 75.1693C130.23 75.2422 130.339 75.2847 130.449 75.3029C130.558 75.3212 130.655 75.3029 130.734 75.2604C130.862 75.1208 130.935 74.9811 130.96 74.8597L130.99 74.4467L131.92 74.5925L131.507 77.1368L122.329 79.2803C121.958 79.4078 121.715 79.6446 121.611 79.9847L121.581 80.3976L120.65 80.2519L121.222 76.7421L122.116 76.8878L122.055 77.2825C122.043 77.3554 122.049 77.3918 122.061 77.404C122.074 77.4161 122.098 77.4222 122.128 77.4283C122.177 77.4343 122.238 77.4282 122.323 77.4161H122.329L125.127 76.7603C125.182 76.5721 125.224 76.3777 125.255 76.1834C125.376 75.4183 125.309 74.6957 125.054 74.0156C124.798 73.3294 124.385 72.7829 123.825 72.37L123.661 72.2728C123.527 72.1939 123.412 72.1453 123.302 72.1271C123.15 72.1028 123.035 72.1332 122.949 72.2182C122.883 72.2971 122.84 72.3943 122.822 72.5218L122.755 72.9226V72.9165ZM126.167 76.2199L126.118 76.5235L129.372 75.7644L125.857 73.6088C126.051 74.0763 126.167 74.5743 126.197 75.0965C126.197 75.1329 126.197 75.1754 126.203 75.2179C126.222 75.5519 126.203 75.8859 126.155 76.2138L126.167 76.2199Z" fill="#343434"/>
<path d="M128.557 84.0046C128.855 84.63 129.026 85.2858 129.068 85.9659C129.111 86.646 129.013 87.3079 128.788 87.9577C128.521 88.7167 128.101 89.3846 127.523 89.9494C127.523 89.9494 127.511 89.9554 127.511 89.9615C127.505 89.9858 127.511 89.998 127.517 90.004C127.56 90.0526 127.615 90.083 127.669 90.1012L128.071 90.2044L127.76 91.091L124.367 89.9129L124.677 89.0264L125.06 89.1964C125.17 89.2328 125.273 89.2268 125.382 89.1721H125.401C125.62 89.0567 125.826 88.9353 126.027 88.8017C126.921 88.1702 127.517 87.4294 127.815 86.5732C128.083 85.802 128.059 85.0733 127.742 84.3932C127.396 83.7192 126.848 83.2516 126.088 82.9905C125.948 82.9419 125.802 82.8994 125.65 82.869C124.604 82.6504 123.54 82.7962 122.463 83.3123C121.855 83.6038 121.338 83.9803 120.906 84.4418C120.474 84.9033 120.158 85.4012 119.969 85.9477C119.702 86.725 119.726 87.4476 120.042 88.1277C120.079 88.2066 120.121 88.2795 120.176 88.3524L120.389 88.6985L119.598 89.1721L119.398 88.826C119.027 88.1702 118.808 87.4719 118.741 86.7371C118.674 86.0024 118.759 85.2798 119.002 84.5754C119.227 83.9256 119.568 83.3488 120.018 82.8387C120.474 82.3286 121.009 81.9218 121.636 81.6181C122.962 81.0109 124.282 80.932 125.589 81.3813C126.246 81.606 126.824 81.946 127.335 82.4015C127.84 82.8508 128.247 83.3913 128.557 84.0167V84.0046Z" fill="#343434"/>
<path d="M120.614 101.651L114.112 97.9041C114.002 97.8434 113.893 97.8252 113.783 97.8556C113.668 97.8859 113.577 97.9527 113.51 98.056L113.333 98.4324L112.524 97.9649L114.325 94.8558L115.134 95.3234L114.89 95.6695C114.836 95.7788 114.823 95.8942 114.854 96.0096C114.884 96.125 114.951 96.21 115.061 96.2707L117.919 97.9163L120.528 93.4046L118.102 92.0079C117.864 91.8804 117.627 91.8561 117.378 91.9168C117.129 91.9836 116.94 92.1294 116.806 92.354L116.605 92.7002L115.827 92.2508L117.627 89.1418L118.406 89.5911L118.205 89.9373C118.077 90.1619 118.041 90.3988 118.108 90.6477C118.175 90.8967 118.321 91.091 118.552 91.2367L124.19 94.4854C124.427 94.613 124.664 94.6372 124.914 94.5704C125.163 94.5037 125.352 94.3579 125.479 94.1272L125.68 93.781L126.465 94.2304L124.664 97.3394L123.88 96.8901L124.08 96.544C124.208 96.3193 124.245 96.0825 124.178 95.8335C124.111 95.5845 123.965 95.3963 123.74 95.2505L121.307 93.8478L118.698 98.3596L121.568 100.017C121.812 100.121 122.012 100.066 122.165 99.8594L122.341 99.4769L123.156 99.9445L121.356 103.053L120.541 102.586L120.778 102.246C120.833 102.137 120.851 102.027 120.814 101.912C120.784 101.797 120.717 101.711 120.614 101.651Z" fill="#343434"/>
<path d="M113.631 110.96L114.337 111.591L111.904 114.287L111.199 113.656L111.509 113.37C111.588 113.273 111.624 113.17 111.618 113.049C111.612 112.927 111.564 112.83 111.466 112.745L108.808 110.352C107.787 109.429 107.136 108.434 106.856 107.359C106.601 106.339 106.71 105.343 107.178 104.371C107.318 104.086 107.464 103.855 107.616 103.685C108.03 103.23 108.51 102.853 109.052 102.562C109.575 102.288 110.134 102.106 110.724 102.015C111.935 101.839 113.072 102.058 114.136 102.659C114.453 102.841 114.745 103.053 115.018 103.296L117.214 105.276C117.469 105.488 117.743 105.61 118.029 105.622C118.315 105.634 118.558 105.549 118.734 105.349L119.002 105.051L119.689 105.671L117.256 108.367L116.569 107.747L116.843 107.444C117.019 107.249 117.086 107.007 117.037 106.721C116.995 106.436 116.849 106.175 116.606 105.95L115.657 105.094C115.201 104.693 114.611 104.377 113.887 104.153C113.163 103.928 112.452 103.825 111.746 103.855C110.998 103.867 110.335 103.964 109.757 104.134C109.179 104.304 108.614 104.681 108.048 105.252C108.036 105.258 108.024 105.27 108.012 105.282C107.768 105.561 107.659 105.883 107.683 106.241C107.708 106.6 107.854 106.903 108.127 107.152L112.75 111.312C112.804 111.36 112.871 111.397 112.938 111.415C113.108 111.445 113.254 111.403 113.37 111.288L113.631 110.947V110.96Z" fill="#343434"/>
<path d="M104.247 108.84L103.9 109.065C103.803 109.138 103.742 109.235 103.73 109.357C103.718 109.478 103.742 109.587 103.815 109.678L108.291 115.702C108.468 115.896 108.675 115.927 108.9 115.793L109.21 115.52L109.769 116.267L106.887 118.404L106.327 117.657L106.68 117.439C106.777 117.36 106.832 117.263 106.85 117.147C106.868 117.032 106.838 116.923 106.765 116.819L105.214 114.737L104.034 115.611C103.967 115.66 103.906 115.708 103.845 115.769C103.73 115.872 103.627 115.981 103.535 116.103C103.444 116.224 103.365 116.346 103.298 116.479C103.237 116.607 103.176 116.747 103.134 116.886C103.097 117.032 103.067 117.178 103.049 117.323C103.03 117.469 103.03 117.615 103.043 117.767C103.049 117.912 103.073 118.058 103.11 118.204C103.146 118.35 103.195 118.489 103.262 118.623C103.286 118.69 103.322 118.75 103.359 118.799L103.383 118.829C103.432 118.89 103.499 118.939 103.572 118.987C103.675 119.054 103.797 119.103 103.925 119.127C104.046 119.151 104.174 119.145 104.296 119.115C104.417 119.084 104.539 119.03 104.648 118.951L104.971 118.714L105.506 119.437L102.617 121.58L102.082 120.858L102.404 120.621C102.471 120.572 102.532 120.511 102.58 120.445C102.666 120.341 102.72 120.226 102.757 120.098C102.787 119.971 102.793 119.843 102.781 119.71C102.769 119.643 102.751 119.582 102.726 119.522C102.708 119.473 102.684 119.424 102.647 119.37C102.623 119.333 102.599 119.303 102.586 119.267C102.574 119.248 102.55 119.206 102.507 119.121C102.222 118.556 102.106 117.967 102.155 117.342C102.173 117.099 102.215 116.856 102.288 116.625C102.015 116.698 101.735 116.728 101.449 116.722C100.938 116.71 100.464 116.595 100.032 116.37C99.6002 116.145 99.2292 115.836 98.9312 115.435L97.9215 114.075C97.8485 113.978 97.7573 113.923 97.6357 113.905C97.514 113.886 97.4046 113.905 97.3133 113.984L96.9971 114.251L96.4375 113.504L99.3204 111.366L99.88 112.113L99.5333 112.338C99.436 112.411 99.3751 112.508 99.363 112.63C99.3508 112.751 99.3751 112.854 99.4481 112.951L100.458 114.305C100.817 114.785 101.242 115.131 101.747 115.344C102.203 115.532 102.586 115.538 102.897 115.362C102.915 115.35 102.933 115.338 102.957 115.326L104.697 114.038L102.313 110.832C102.24 110.735 102.149 110.68 102.027 110.662C101.905 110.644 101.796 110.662 101.705 110.741L101.388 111.008L100.829 110.261L103.712 108.124L104.271 108.871L104.247 108.84Z" fill="#343434"/>
<path d="M96.0665 125.588L93.6945 126.505L93.2566 126.116L93.1654 126.043L88.2632 121.768L87.5881 127.598L87.5455 127.956L87.4361 128.916L85.5141 129.656L85.1735 128.782L85.575 128.667C85.6905 128.618 85.7696 128.539 85.8182 128.43C85.8669 128.32 85.8669 128.211 85.8182 128.102L83.1117 121.107C83.0691 120.997 82.9961 120.918 82.8867 120.864C82.7772 120.815 82.6677 120.809 82.5461 120.851L82.169 121.028L81.8345 120.159L85.1918 118.866L85.5263 119.734L85.1249 119.862C85.0093 119.91 84.9303 119.989 84.8816 120.098C84.8329 120.208 84.8329 120.317 84.8816 120.426L86.913 125.679L87.4786 120.851L87.5212 120.505V120.469L87.7098 118.896L92.7822 123.311L90.9637 118.617C90.8603 118.374 90.69 118.198 90.4528 118.095C90.2156 117.991 89.9784 117.985 89.7351 118.082L89.3641 118.228L89.0357 117.384L92.399 116.085L92.7275 116.929L92.3504 117.074C92.1132 117.166 91.9368 117.33 91.8334 117.566C91.73 117.797 91.7179 118.04 91.803 118.295L94.1507 124.361C94.2541 124.604 94.4244 124.78 94.6616 124.883C94.8988 124.987 95.136 124.993 95.3732 124.896L95.7503 124.75L96.0787 125.594L96.0665 125.588Z" fill="#343434"/>
<path d="M77.6377 121.938L77.5039 121.046L81.0254 120.493L81.1592 121.386L80.7639 121.447C80.4719 121.495 80.1982 121.641 79.9428 121.896C79.6873 122.151 79.511 122.442 79.4258 122.764V122.801L77.7958 129.614C77.7654 129.747 77.7593 129.869 77.7715 129.978C77.7897 130.094 77.8323 130.179 77.8992 130.239C78.0756 130.318 78.2276 130.349 78.3554 130.324L78.7568 130.227L78.9088 131.156L76.3604 131.557L71.4583 123.517C71.2211 123.201 70.9231 123.05 70.5642 123.056L70.1628 123.153L70.0107 122.224L73.5323 121.671L73.6722 122.564L73.2768 122.625C73.2038 122.637 73.1673 122.649 73.1613 122.673C73.1552 122.691 73.1552 122.716 73.1613 122.746C73.1673 122.795 73.1917 122.855 73.2342 122.928H73.2403L74.7304 125.387C74.9251 125.381 75.1258 125.363 75.3204 125.333C76.0867 125.211 76.7558 124.926 77.3214 124.465C77.887 124.003 78.2824 123.444 78.5013 122.782L78.5439 122.594C78.5804 122.442 78.5865 122.315 78.5682 122.206C78.5439 122.054 78.477 121.951 78.3675 121.896H78.3614C78.2763 121.859 78.1668 121.847 78.0391 121.872L77.6377 121.932V121.938ZM75.5576 126.207L75.2535 126.256L76.9869 129.11L77.9418 125.108C77.5586 125.436 77.1207 125.703 76.628 125.898C76.5916 125.916 76.5551 125.928 76.5125 125.946C76.2023 126.068 75.88 126.159 75.5515 126.213L75.5576 126.207Z" fill="#343434"/>
<path d="M61.8246 123.699L61.7638 123.639C61.557 123.414 61.332 123.232 61.0765 123.092C60.8211 122.952 60.6082 122.874 60.4379 122.855L60.0182 122.874L60.0608 121.944L63.5458 122.096L63.5215 123.031C63.4789 123.031 63.4546 123.056 63.4424 123.104C63.4424 123.116 63.4424 123.135 63.4607 123.147L63.4789 123.171L65.6502 125.6C65.6502 125.6 65.6867 125.63 65.705 125.643L65.7172 125.655C65.857 125.764 65.9848 125.885 66.1064 126.019L66.1551 126.074L66.2645 123.56C66.2645 123.438 66.2341 123.335 66.149 123.244C66.0638 123.153 65.9665 123.104 65.851 123.092L65.4313 123.11L65.4739 122.181L69.0623 122.333L69.0197 123.262L68.6061 123.208C68.4845 123.208 68.375 123.25 68.2899 123.335C68.2047 123.42 68.1561 123.523 68.15 123.639L67.8276 131.108C67.8276 131.229 67.858 131.332 67.9371 131.417C68.0162 131.502 68.1196 131.557 68.2412 131.563L68.6548 131.545L68.6122 132.474L63.0775 132.237C63.041 132.237 63.0045 132.237 62.968 132.225H62.9559L62.7248 132.195L62.3781 132.14V132.116C62.3477 132.11 62.3112 132.103 62.2808 132.091C61.63 131.897 61.0704 131.551 60.6082 131.041C60.2615 130.658 60.0122 130.239 59.8479 129.778C59.6898 129.316 59.6168 128.849 59.6351 128.375C59.6533 127.895 59.7689 127.434 59.9635 126.985C60.1642 126.535 60.4501 126.14 60.8272 125.788C61.2772 125.375 61.7942 125.09 62.3842 124.938L62.5849 124.89C62.67 124.871 62.7552 124.853 62.8464 124.841L61.8246 123.693V123.699ZM65.93 131.029L66.0699 127.768C65.9422 127.337 65.7293 126.96 65.4252 126.626C65.4009 126.596 65.3766 126.566 65.3461 126.535C64.8657 126.055 64.2818 125.788 63.6006 125.721H63.4729C62.7187 125.685 62.0436 125.928 61.4414 126.456C61.2042 126.681 61.0765 126.985 61.0583 127.373C61.0522 127.543 61.0644 127.725 61.1069 127.926C61.2529 128.66 61.63 129.365 62.2382 130.033C62.8221 130.658 63.4546 131.083 64.148 131.302C64.2027 131.326 64.2635 131.344 64.3244 131.351C64.4521 131.387 64.5737 131.405 64.7014 131.417L65.4678 131.448C65.5894 131.448 65.6989 131.417 65.7901 131.332C65.8814 131.253 65.93 131.15 65.9361 131.023L65.93 131.029Z" fill="#343434"/>
<path d="M53.9783 120.791C55.3285 121.137 56.3807 121.896 57.1288 123.074C57.4876 123.657 57.7248 124.276 57.8343 124.932C57.9438 125.588 57.9256 126.244 57.7735 126.906C57.439 128.272 56.6848 129.341 55.5049 130.106C54.2581 130.847 52.9687 131.065 51.6367 130.761C50.846 130.585 50.1466 130.239 49.5323 129.735C49.5201 129.735 49.514 129.735 49.514 129.723C49.5019 129.723 49.4897 129.723 49.4775 129.735C49.435 129.784 49.4106 129.839 49.3985 129.899L49.3437 130.312L48.4375 130.106L49.2221 126.638L50.1283 126.845L50.0006 127.24C49.9763 127.355 50.0006 127.464 50.0614 127.561L50.0736 127.58C50.2013 127.786 50.3473 127.974 50.5054 128.15C51.2231 128.958 52.0198 129.462 52.8957 129.662C53.6863 129.839 54.404 129.735 55.0366 129.353C55.6691 128.934 56.0705 128.339 56.2469 127.561C56.2773 127.422 56.3016 127.276 56.3138 127.124C56.4111 126.074 56.1496 125.041 55.5292 124.039C55.1704 123.475 54.7385 123.007 54.2459 122.637C53.7472 122.266 53.218 122.017 52.6585 121.89C52.2692 121.805 51.8982 121.781 51.5394 121.829L50.8338 124.95L53.9235 125.649L53.7289 126.517L48.8146 125.406L50.0614 119.91L50.9676 120.117L50.8399 120.511C50.8156 120.657 50.8521 120.785 50.9372 120.888C50.9616 120.912 50.992 120.93 51.0285 120.936C51.0589 120.943 51.0954 120.936 51.1319 120.936H51.1379C52.0685 120.627 52.993 120.578 53.9175 120.785C53.9479 120.785 53.9722 120.797 53.9904 120.809L53.9783 120.791Z" fill="#343434"/>
<path d="M45.3723 119.145L45.7494 118.325L49.0033 119.777L48.6262 120.596L48.2613 120.432C47.9937 120.311 47.6774 120.287 47.3246 120.36C46.9719 120.432 46.6678 120.584 46.4123 120.809L46.3819 120.833L41.3034 125.661C41.2061 125.758 41.1331 125.855 41.0844 125.952C41.0358 126.055 41.0236 126.153 41.0479 126.238C41.1513 126.395 41.2669 126.505 41.3824 126.559L41.7717 126.693L41.3946 127.555L39.0408 126.505L39.3206 117.099C39.2902 116.704 39.126 116.413 38.8219 116.224L38.4326 116.091L38.8097 115.228L42.0636 116.68L41.6926 117.506L41.3277 117.342C41.2608 117.311 41.2243 117.305 41.206 117.317C41.1939 117.323 41.1756 117.348 41.1635 117.378C41.1452 117.421 41.1331 117.487 41.127 117.572V117.585L41.0418 120.451C41.2121 120.554 41.3824 120.645 41.5649 120.724C42.2704 121.04 42.9881 121.161 43.7179 121.088C44.4478 121.015 45.0803 120.76 45.6277 120.323L45.7676 120.19C45.8771 120.08 45.9562 119.977 45.9987 119.88C46.0595 119.74 46.0595 119.619 45.9987 119.516H45.9927C45.9379 119.431 45.8528 119.364 45.7372 119.315L45.3662 119.151L45.3723 119.145ZM41.2973 121.592L41.0175 121.465L40.9141 124.798L43.9004 121.963C43.3956 122.029 42.8847 122.011 42.3677 121.914C42.3312 121.908 42.2887 121.902 42.2461 121.89C41.9177 121.823 41.6014 121.72 41.2973 121.592Z" fill="#343434"/>
<path d="M31.1522 112.01L31.134 111.925C31.0853 111.628 30.9941 111.348 30.8542 111.093C30.7204 110.832 30.5805 110.65 30.4467 110.547L30.0818 110.328L30.6231 109.569L33.4573 111.597L32.9221 112.362C32.8856 112.338 32.8491 112.344 32.8126 112.381C32.8065 112.393 32.8004 112.405 32.8065 112.429V112.46L33.2992 115.678C33.3053 115.702 33.3113 115.726 33.3235 115.745V115.763C33.3843 115.933 33.4269 116.103 33.4512 116.285L33.4634 116.352L34.9353 114.305C35.0022 114.208 35.0326 114.099 35.0143 113.978C34.9961 113.856 34.9413 113.759 34.844 113.686L34.4791 113.474L35.0204 112.715L37.9398 114.803L37.3985 115.562L37.0822 115.295C36.9788 115.228 36.8694 115.204 36.7477 115.228C36.6261 115.253 36.5348 115.313 36.4679 115.405L32.1071 121.483C32.0402 121.58 32.0098 121.683 32.028 121.805C32.0463 121.926 32.101 122.017 32.1983 122.096L32.5572 122.309L32.0159 123.068L27.5151 119.85C27.4847 119.825 27.4543 119.807 27.43 119.783H27.4178L27.2414 119.619L26.9799 119.382L26.9921 119.364C26.9921 119.364 26.9434 119.315 26.9252 119.291C26.4872 118.775 26.2075 118.174 26.098 117.5C26.0189 116.996 26.0372 116.504 26.1527 116.024C26.2744 115.55 26.469 115.119 26.7488 114.731C27.0285 114.342 27.3752 114.014 27.7888 113.747C28.2024 113.48 28.6585 113.304 29.1694 113.219C29.7716 113.121 30.3615 113.164 30.9393 113.352L31.1279 113.419C31.213 113.449 31.2921 113.486 31.3712 113.522L31.1461 112.004L31.1522 112.01ZM30.5805 120.39L32.4842 117.736C32.6119 117.305 32.6362 116.874 32.5693 116.431C32.5693 116.394 32.5572 116.352 32.5511 116.309C32.4051 115.647 32.0706 115.101 31.5354 114.67L31.432 114.597C30.8177 114.16 30.1182 113.996 29.3276 114.105C29.0052 114.16 28.7315 114.348 28.5065 114.664C28.4092 114.803 28.3179 114.967 28.245 115.15C27.9591 115.848 27.8922 116.637 28.0382 117.53C28.1841 118.374 28.4822 119.072 28.9383 119.637C28.9687 119.692 29.0113 119.734 29.06 119.777C29.1451 119.874 29.2424 119.959 29.3397 120.038L29.9662 120.487C30.0696 120.56 30.1791 120.584 30.3007 120.566C30.4223 120.548 30.5197 120.487 30.5926 120.39H30.5805Z" fill="#343434"/>
<path d="M26.2745 106.739L26.9192 106.065L29.5284 108.531L28.8837 109.205L28.61 108.895C28.5187 108.816 28.4093 108.774 28.2937 108.78C28.1721 108.78 28.0748 108.828 27.9896 108.913L22.8259 114.36C22.6678 114.567 22.6739 114.773 22.8442 114.973L23.1665 115.235L22.5218 115.915L19.9126 113.449L20.5573 112.775L20.831 113.085C20.9222 113.164 21.0317 113.206 21.1473 113.2C21.2689 113.2 21.3662 113.152 21.4514 113.067L26.609 107.632C26.6941 107.541 26.7367 107.438 26.7367 107.316C26.7367 107.195 26.6941 107.092 26.6029 107.007L26.2805 106.752L26.2745 106.739Z" fill="#343434"/>
<path d="M18.1124 111.907L12.5229 105.088L14.2685 103.661L14.8402 104.359L14.53 104.614C14.3293 104.778 14.2138 104.991 14.1834 105.246C14.159 105.501 14.2259 105.737 14.3962 105.944L15.1382 106.849C15.2173 106.94 15.3207 106.994 15.4423 107.007C15.564 107.019 15.6674 106.988 15.7586 106.909L21.5792 102.155C21.7738 101.967 21.7981 101.76 21.6522 101.535L21.3602 101.232L22.0901 100.637L24.3769 103.424L23.6471 104.019L23.4099 103.673C23.3308 103.582 23.2274 103.527 23.1058 103.521C22.9841 103.515 22.8807 103.545 22.7895 103.618L16.9568 108.385C16.7743 108.573 16.7561 108.78 16.9081 108.998L17.6501 109.903C17.8265 110.11 18.0394 110.225 18.2948 110.249C18.5503 110.273 18.7814 110.201 18.9821 110.037L19.2923 109.782L19.864 110.48L18.1185 111.907H18.1124Z" fill="#343434"/>
<path d="M18.5383 97.303L19.3229 96.8476L21.1415 99.908L20.3569 100.363L20.1562 100.023C20.0041 99.7683 19.7669 99.574 19.4324 99.4283C19.0979 99.2826 18.7634 99.2279 18.4289 99.2704H18.3924L11.4527 100.284C11.3128 100.303 11.1973 100.345 11.106 100.4C11.0087 100.461 10.9418 100.527 10.9114 100.612C10.9053 100.807 10.9357 100.952 10.9966 101.068L11.2398 101.408L10.4309 101.894L9.11719 99.6773L14.7918 92.1597C14.9986 91.8257 15.029 91.4918 14.8952 91.1578L14.6519 90.8177L15.4547 90.3319L17.2733 93.3924L16.4948 93.8539L16.294 93.5138C16.2576 93.4531 16.2271 93.4228 16.2089 93.4228C16.1907 93.4228 16.1663 93.4288 16.142 93.447C16.0994 93.4713 16.0508 93.5138 15.996 93.5806V93.5928L14.2626 95.882C14.3417 96.0642 14.4329 96.2342 14.5363 96.4103C14.9317 97.0783 15.4486 97.5884 16.0812 97.9466C16.7198 98.3049 17.3827 98.4628 18.0822 98.4203L18.2707 98.3899C18.4228 98.3656 18.5444 98.3292 18.6417 98.2685C18.7695 98.1895 18.8424 98.0924 18.8546 97.9709C18.8546 97.8677 18.8303 97.7645 18.7634 97.6552L18.5566 97.309L18.5383 97.303ZM13.7943 96.9508L13.6362 96.6897L11.623 99.3554L15.7041 98.7603C15.254 98.5235 14.8465 98.2138 14.4816 97.8373C14.4573 97.807 14.4268 97.7827 14.3964 97.7463C14.1653 97.5034 13.9646 97.2362 13.7943 96.9508Z" fill="#343434"/>
<path d="M3.91068 89.1418L1.49609 80.6709L3.66132 80.0576L3.91068 80.9259L3.52751 81.0352C3.27814 81.1081 3.0896 81.2538 2.96188 81.4785C2.83415 81.7032 2.80982 81.9461 2.87673 82.2072L3.19908 83.3305C3.23557 83.4459 3.30855 83.537 3.41803 83.5917C3.52751 83.6463 3.63091 83.6645 3.74646 83.6281L10.9781 81.5696C11.2335 81.4724 11.3369 81.2902 11.2882 81.0291L11.1362 80.6344L12.0424 80.3794L13.0277 83.8406L12.1215 84.0957L12.0424 83.6827C12.0059 83.5674 11.933 83.4763 11.8296 83.4216C11.7262 83.367 11.6167 83.3548 11.5011 83.3852L4.25128 85.4498C4.00799 85.553 3.91068 85.7352 3.95934 85.9902L4.28169 87.1136C4.36076 87.3747 4.51281 87.563 4.73784 87.6844C4.96288 87.8058 5.20008 87.8362 5.45553 87.7633L5.8387 87.654L6.08807 88.5224L3.92285 89.1357L3.91068 89.1418Z" fill="#343434"/>
<path d="M10.0962 77.0639L10.0841 76.651C10.0719 76.5295 10.0171 76.4324 9.91984 76.3534C9.82252 76.2806 9.71913 76.2502 9.59749 76.2624L2.1226 77.0093C1.86716 77.0639 1.73335 77.2218 1.73335 77.4829L1.81242 77.8897L0.881859 77.9808L0.523016 74.4103L1.45358 74.3192V74.7321C1.4779 74.8536 1.53264 74.9507 1.62387 75.0236C1.7151 75.0965 1.82458 75.1268 1.94622 75.1147L4.53719 74.8597L4.39122 73.4023C4.38514 73.3234 4.37298 73.2444 4.35473 73.1655C4.32432 73.0137 4.28174 72.8679 4.22701 72.7283C4.17227 72.5886 4.09928 72.4611 4.02022 72.3336C3.94115 72.2121 3.856 72.0967 3.75869 71.9814C3.65529 71.8721 3.53973 71.7749 3.43025 71.6838C3.31469 71.5927 3.19305 71.5199 3.05316 71.447C2.91936 71.3802 2.78555 71.3256 2.63958 71.2831C2.49361 71.2405 2.34764 71.2102 2.20167 71.198C2.12869 71.1859 2.06178 71.1859 2.00096 71.192H1.96447C1.89149 71.2102 1.81242 71.2345 1.72727 71.277C1.61171 71.3316 1.5144 71.4106 1.42925 71.5077C1.35018 71.5988 1.28936 71.7081 1.24678 71.8356C1.20421 71.9571 1.19205 72.0907 1.20421 72.2243L1.2407 72.619L0.346636 72.71L-0.012207 69.1334L0.881859 69.0424L0.918352 69.4371C0.924434 69.5221 0.948762 69.601 0.979173 69.68C1.02783 69.8014 1.09473 69.9168 1.18596 70.0079C1.28328 70.0989 1.38667 70.1718 1.50831 70.2265C1.57522 70.2508 1.63604 70.269 1.69686 70.2811C1.74552 70.2933 1.80634 70.2933 1.86716 70.2933C1.90973 70.2933 1.95231 70.2933 1.9888 70.2933C2.00704 70.2933 2.06178 70.2933 2.15301 70.2933H2.1591C2.78555 70.3358 3.35119 70.5362 3.86816 70.9005C4.06887 71.0402 4.25133 71.2041 4.41555 71.3802C4.49462 71.113 4.61018 70.8519 4.76223 70.609C5.03592 70.1779 5.37652 69.8318 5.79618 69.5707C6.20977 69.3095 6.66592 69.1577 7.16465 69.1092L8.85547 68.9391C8.97103 68.927 9.07443 68.8723 9.15349 68.7812C9.23256 68.6902 9.26905 68.5809 9.25689 68.4655L9.18999 68.0586L10.1205 67.9676L10.4794 71.5381L9.54883 71.6292L9.53667 71.2163C9.5245 71.0948 9.46976 70.9977 9.37245 70.9187C9.27514 70.8458 9.17174 70.8155 9.0501 70.8276L7.37144 70.9977C6.7754 71.0584 6.25842 71.2466 5.81443 71.5685C5.41909 71.8599 5.21839 72.1878 5.2123 72.5461C5.2123 72.5643 5.2123 72.5886 5.2123 72.619L5.42518 74.7686L9.40286 74.3739C9.51842 74.3617 9.62181 74.3071 9.70088 74.216C9.77995 74.1249 9.81644 74.0156 9.80428 73.9002L9.73737 73.4934L10.6679 73.4023L11.0268 76.9728L10.0962 77.0639Z" fill="#343434"/>
<path d="M9.36653 63.3708L10.2667 63.4619L9.93216 67.0021L9.03202 66.911L9.06851 66.5163C9.09284 66.2248 9.01985 65.9212 8.83739 65.6054C8.65493 65.2957 8.41772 65.0528 8.1197 64.8889L8.08321 64.8707L1.8734 61.6159C1.75176 61.5491 1.6362 61.5127 1.52672 61.5066C1.41116 61.4945 1.31993 61.5188 1.24087 61.5673C1.11922 61.7191 1.0584 61.8588 1.04624 61.9863V62.3992L0.103516 62.3203L0.346799 59.7578L9.36045 57.007C9.72537 56.8552 9.94433 56.6062 10.0295 56.254V55.8411L10.9722 55.9201L10.6377 59.4602L9.73754 59.3752L9.77403 58.9805C9.78011 58.9076 9.77403 58.8712 9.75578 58.8591C9.74362 58.8469 9.71929 58.8409 9.68888 58.8409C9.64022 58.8409 9.5794 58.8409 9.49425 58.8651H9.48817L6.73907 59.7092C6.69649 59.9035 6.66608 60.0978 6.64784 60.2921C6.57485 61.0633 6.69041 61.7799 6.99452 62.4417C7.29862 63.1036 7.74261 63.6259 8.33258 64.0023L8.50287 64.0873C8.63668 64.1602 8.7644 64.1966 8.87388 64.2088C9.02593 64.2209 9.14149 64.1845 9.22056 64.0934C9.28138 64.0084 9.31787 63.9113 9.33004 63.7837L9.36653 63.3769V63.3708ZM5.74161 60.2982L5.77202 59.9946L2.57284 60.9662L6.22209 62.879C5.99706 62.4235 5.85109 61.9377 5.7781 61.4155C5.7781 61.3791 5.76594 61.3366 5.75985 61.2941C5.71728 60.9601 5.7112 60.6322 5.74161 60.2982Z" fill="#343434"/>
<path d="M2.83427 52.6957C2.49367 52.0884 2.2808 51.4508 2.18957 50.7768C2.10442 50.1028 2.15307 49.4348 2.33554 48.7669C2.54841 47.9896 2.9255 47.2974 3.4668 46.6901C3.4668 46.6901 3.47897 46.6841 3.47897 46.678C3.48505 46.6537 3.47897 46.6415 3.4668 46.6355C3.41815 46.593 3.36341 46.5626 3.30867 46.5444L2.90117 46.4715L3.15053 45.5667L6.61732 46.514L6.36796 47.4188L5.97262 47.2731C5.86314 47.2427 5.75367 47.2609 5.65027 47.3156L5.63203 47.3277C5.41915 47.4492 5.22453 47.5828 5.03598 47.7346C4.19057 48.4207 3.64318 49.2041 3.40598 50.0785C3.19311 50.8679 3.26609 51.5905 3.62494 52.2463C4.01419 52.896 4.59807 53.3211 5.3705 53.5336C5.51038 53.5701 5.66244 53.6004 5.82057 53.6247C6.87885 53.7705 7.93105 53.5519 8.97109 52.9689C9.55497 52.6349 10.0476 52.2281 10.449 51.7362C10.8505 51.2504 11.1302 50.7282 11.2762 50.1756C11.4952 49.3862 11.4222 48.6636 11.0572 48.0078C11.0147 47.9349 10.966 47.8621 10.9113 47.7892L10.6741 47.4613L11.4283 46.9391L11.6533 47.2731C12.0669 47.9046 12.3345 48.5847 12.45 49.3134C12.5656 50.042 12.5291 50.7707 12.3345 51.4873C12.152 52.1491 11.854 52.7503 11.4343 53.2907C11.0147 53.8312 10.5038 54.2684 9.90165 54.6206C8.61833 55.3189 7.31068 55.4829 5.97262 55.1185C5.30359 54.9363 4.70147 54.6388 4.16624 54.2198C3.63102 53.8008 3.18703 53.2968 2.84035 52.6896L2.83427 52.6957Z" fill="#343434"/>
<path d="M9.57325 34.5576L16.3122 37.861C16.4217 37.9156 16.5312 37.9217 16.6467 37.8852C16.7623 37.8488 16.8474 37.7759 16.9082 37.6666L17.0603 37.278L17.8996 37.6909L16.3122 40.9153L15.4729 40.5024L15.6918 40.1442C15.7405 40.0288 15.7405 39.9134 15.704 39.8041C15.6675 39.6948 15.5945 39.6098 15.479 39.5551L12.517 38.1039L10.2179 42.7795L12.7298 44.0122C12.9731 44.1215 13.2164 44.1337 13.4597 44.0547C13.703 43.9758 13.8854 43.8179 14.001 43.5811L14.1774 43.2228L14.9863 43.6175L13.3989 46.8419L12.59 46.4472L12.7663 46.089C12.8819 45.8521 12.9001 45.6153 12.815 45.3724C12.7298 45.1295 12.5717 44.9413 12.3345 44.8138L6.49571 41.9476C6.25243 41.8383 6.00914 41.8262 5.76586 41.9112C5.52258 41.9962 5.3462 42.1541 5.23064 42.3909L5.05426 42.7492L4.23926 42.3484L5.82668 39.124L6.64168 39.5248L6.4653 39.883C6.34974 40.1199 6.3315 40.3567 6.41664 40.5935C6.50179 40.8364 6.65993 41.0186 6.89105 41.1461L9.40903 42.3848L11.7081 37.7092L8.73392 36.2518C8.48455 36.1668 8.28993 36.2336 8.15004 36.4522L7.99799 36.8469L7.15258 36.434L8.74 33.2096L9.58541 33.6225L9.37254 33.9747C9.32388 34.09 9.3178 34.1993 9.36037 34.3147C9.40295 34.4301 9.47593 34.509 9.57933 34.5637L9.57325 34.5576Z" fill="#343434"/>
<path d="M15.9231 24.7994L15.1811 24.2164L17.4314 21.3685L18.1734 21.9515L17.8876 22.2612C17.8146 22.3583 17.7842 22.4676 17.8024 22.5891C17.8207 22.7105 17.8754 22.8016 17.9727 22.8805L20.7827 25.0909C21.8653 25.941 22.583 26.8943 22.9296 27.9509C23.252 28.9529 23.2094 29.9548 22.808 30.9567C22.6924 31.2482 22.5586 31.4911 22.4187 31.6733C22.0356 32.159 21.5855 32.5598 21.0624 32.8877C20.5576 33.1974 20.0163 33.416 19.4324 33.5435C18.2343 33.7986 17.0848 33.6589 15.99 33.1245C15.6615 32.9667 15.3574 32.7724 15.0655 32.5416L12.7421 30.7138C12.4745 30.5134 12.1948 30.4163 11.9028 30.4224C11.6109 30.4224 11.3798 30.5317 11.2155 30.7381L10.9662 31.0539L10.2363 30.4831L12.4867 27.6352L13.2165 28.206L12.9672 28.5217C12.803 28.7282 12.7543 28.9711 12.8212 29.2565C12.882 29.5419 13.0463 29.7908 13.3017 29.9973L14.3052 30.7867C14.7857 31.1571 15.4 31.4304 16.136 31.6065C16.8719 31.7826 17.5896 31.8372 18.289 31.7643C19.0371 31.6976 19.6879 31.564 20.2535 31.3514C20.8192 31.1389 21.3605 30.7321 21.8835 30.1248C21.8957 30.1187 21.9078 30.1066 21.92 30.0884C22.139 29.7908 22.2302 29.4629 22.1815 29.1107C22.1329 28.7585 21.9687 28.461 21.6767 28.2303L16.7867 24.3865C16.7259 24.3379 16.6651 24.3075 16.5921 24.2954C16.4218 24.2772 16.2819 24.3257 16.1664 24.4533L15.9292 24.8115L15.9231 24.7994Z" fill="#343434"/>
<path d="M25.4107 26.3053L25.7452 26.0564C25.8365 25.9774 25.8912 25.8742 25.8973 25.7527C25.9034 25.6313 25.8669 25.5281 25.7939 25.437L20.9222 19.729C20.7336 19.5468 20.5268 19.5347 20.3079 19.6804L20.0159 19.978L19.4077 19.2675L22.1447 16.9418L22.7529 17.6523L22.4123 17.8951C22.321 17.9802 22.2724 18.0773 22.2663 18.1988C22.2602 18.3202 22.2967 18.4234 22.3758 18.5206L24.0605 20.5002L25.1796 19.5468C25.2404 19.4922 25.3013 19.4375 25.356 19.3768C25.4655 19.2675 25.5567 19.146 25.6419 19.0185C25.7209 18.891 25.7939 18.7635 25.8486 18.6238C25.9034 18.4902 25.952 18.3506 25.9885 18.2048C26.0189 18.053 26.0372 17.9073 26.0433 17.7676C26.0494 17.6219 26.0433 17.4762 26.025 17.3243C26.0068 17.1786 25.9764 17.0329 25.9277 16.8932C25.8791 16.7535 25.8243 16.6139 25.7452 16.4864C25.7148 16.4196 25.6783 16.3649 25.6358 16.3163L25.6114 16.2921C25.5567 16.2374 25.4898 16.1888 25.4107 16.1463C25.3013 16.0856 25.1796 16.0431 25.0519 16.0309C24.9302 16.0188 24.8025 16.0309 24.6809 16.0674C24.5592 16.1038 24.4437 16.1706 24.3342 16.2556L24.0301 16.5167L23.4462 15.8366L26.1832 13.5049L26.767 14.185L26.4629 14.4461C26.396 14.5007 26.3413 14.5614 26.2987 14.6343C26.2257 14.7436 26.171 14.859 26.1467 14.9926C26.1284 15.1201 26.1284 15.2537 26.1467 15.3812C26.1649 15.448 26.1892 15.5087 26.2136 15.5694C26.2318 15.6119 26.2622 15.6666 26.3048 15.7152C26.3352 15.7455 26.3535 15.782 26.3717 15.8184C26.3839 15.8306 26.4143 15.8791 26.4629 15.9581C26.7853 16.4985 26.9434 17.0815 26.9373 17.713C26.9373 17.9559 26.9069 18.1988 26.8522 18.4356C27.1198 18.3445 27.3935 18.2959 27.6854 18.2777C28.1963 18.2534 28.6768 18.3384 29.1269 18.5327C29.577 18.7271 29.9662 19.0125 30.2886 19.395L31.3894 20.6823C31.4685 20.7734 31.5658 20.822 31.6874 20.8342C31.8091 20.8463 31.9186 20.8099 32.0037 20.737L32.3017 20.4455L32.9099 21.156L30.173 23.4817L29.5648 22.7712L29.8993 22.5223C29.9905 22.4433 30.0453 22.3401 30.0514 22.2186C30.0574 22.0972 30.021 21.994 29.948 21.9029L28.8532 20.6216C28.4639 20.1662 28.0139 19.8504 27.4969 19.6683C27.0286 19.5104 26.6454 19.5286 26.3474 19.729C26.3352 19.7411 26.3109 19.7533 26.2866 19.7715L24.6383 21.1742L27.2293 24.2104C27.3083 24.3014 27.4057 24.35 27.5273 24.3622C27.6489 24.3743 27.7584 24.3379 27.8436 24.265L28.1416 23.9735L28.7498 24.684L26.0129 27.0097L25.4047 26.2992L25.4107 26.3053Z" fill="#343434"/>
</g>
<defs>
<clipPath id="clip0_1379_34">
<rect width="132.486" height="132.486" fill="white"/>
</clipPath>
</defs>
</svg>
